<svg width="30" height="30" viewBox="0 0 30 30" fill="none" xmlns="http://www.w3.org/2000/svg">
<path d="M24.42 13.9601H5.6517C3.62387 13.9601 1.98047 12.3166 1.98047 10.2888V8.0297C1.98047 6.00183 3.62387 4.3584 5.6517 4.3584H24.4187C26.4465 4.3584 28.0899 6.00183 28.0899 8.0297V10.2901C28.0899 12.3166 26.4465 13.9601 24.42 13.9601Z" fill="#F6F7F9"/>
<path d="M21.9679 2.45508H8.03206C3.59593 2.45508 0 6.05108 0 10.4873V21.9675C0 26.4037 3.59593 29.9997 8.03206 29.9997H21.9679C26.4041 29.9997 30 26.4037 30 21.9675V10.4873C29.9987 6.05108 26.4027 2.45508 21.9679 2.45508ZM27.5455 11.4041H2.45453V10.7925C2.45453 7.5439 5.08873 4.90966 8.33722 4.90966H21.6615C24.9099 4.90966 27.5441 7.5439 27.5441 10.7925V11.4041H27.5455Z" fill="#3760F7"/>
<path d="M15.0034 23.7322C11.7364 23.7322 8.78649 22.032 7.66227 19.5021C7.37296 18.8521 7.66623 18.0912 8.3162 17.8032C8.96484 17.5138 9.72577 17.8071 10.0151 18.4571C10.7324 20.0728 12.7378 21.1587 15.0034 21.1587C17.277 21.1587 19.2837 20.0688 19.997 18.4452C20.2824 17.7939 21.0433 17.4993 21.6933 17.7847C22.3446 18.07 22.6405 18.8296 22.3538 19.4809C21.2362 22.024 18.2823 23.7322 15.0034 23.7322Z" fill="#F6F7F9"/>
<path d="M8.85806 0C8.1579 0 7.58984 0.568067 7.58984 1.26824V6.3716C7.58984 7.07178 8.1579 7.63985 8.85806 7.63985C9.55823 7.63985 10.1263 7.07178 10.1263 6.3716V1.26824C10.1276 0.568067 9.55955 0 8.85806 0Z" fill="#3760F7"/>
<path d="M21.1354 0C20.4352 0 19.8672 0.568067 19.8672 1.26824V6.3716C19.8672 7.07178 20.4352 7.63985 21.1354 7.63985C21.8356 7.63985 22.4036 7.07178 22.4036 6.3716V1.26824C22.4036 0.568067 21.8356 0 21.1354 0Z" fill="#3760F7"/>
</svg>
