<svg width="72" height="65" viewBox="0 0 72 65" fill="none" xmlns="http://www.w3.org/2000/svg">
<path d="M65 62.9577C65 64.1831 63.9844 65 62.9688 65H2.03125C0.8125 65 0 63.9789 0 62.9577V9.04225C0 7.8169 1.01562 7 2.03125 7H62.9688C64.1875 7 65 8.02113 65 9.04225V62.9577Z" fill="#F8FAFE"/>
<path d="M72 55.9577C72 57.1831 70.9844 58 69.9688 58H9.03125C7.8125 58 7 56.9789 7 55.9577V2.04225C7 0.816901 8.01562 0 9.03125 0H69.9688C71.1875 0 72 1.02113 72 2.04225V55.9577Z" fill="#E4EAF4"/>
<path d="M7 14H72" stroke="#D7E0EE" stroke-miterlimit="10.1516"/>
<path d="M12.1266 9.06433C13.0314 9.06433 13.7649 8.32655 13.7649 7.41644C13.7649 6.50634 13.0314 5.76855 12.1266 5.76855C11.2218 5.76855 10.4883 6.50634 10.4883 7.41644C10.4883 8.32655 11.2218 9.06433 12.1266 9.06433Z" fill="white"/>
<path d="M18.2711 9.06433C19.176 9.06433 19.9095 8.32655 19.9095 7.41644C19.9095 6.50634 19.176 5.76855 18.2711 5.76855C17.3663 5.76855 16.6328 6.50634 16.6328 7.41644C16.6328 8.32655 17.3663 9.06433 18.2711 9.06433Z" fill="white"/>
<path d="M24.6188 9.06433C25.5236 9.06433 26.2571 8.32655 26.2571 7.41644C26.2571 6.50634 25.5236 5.76855 24.6188 5.76855C23.714 5.76855 22.9805 6.50634 22.9805 7.41644C22.9805 8.32655 23.714 9.06433 24.6188 9.06433Z" fill="white"/>
<path d="M63 49.2273C63 50.1136 61.881 51 60.7619 51H18.2381C16.8952 51 16 50.1136 16 49.2273V39.7727C16 38.8864 17.119 38 18.2381 38H60.7619C62.1048 38 63 38.8864 63 39.7727V49.2273Z" fill="#3760F7"/>
<path d="M21.0648 45.1858H21.7174L21.3842 44.0846L21.0648 45.1858ZM21.9319 45.7685H20.8457L20.5674 46.5164H19.8555L21.0237 43.3551H21.7493L22.913 46.5164H22.2102L21.9319 45.7685Z" fill="white"/>
<path d="M24.6921 43.9469V44.8371H25.2808C25.3416 44.8371 25.3964 44.8248 25.445 44.8004C25.4937 44.7728 25.5348 44.7392 25.5683 44.6994C25.6048 44.6566 25.6322 44.6092 25.6504 44.5572C25.6687 44.5021 25.6778 44.4471 25.6778 44.392C25.6778 44.3369 25.6687 44.2834 25.6504 44.2314C25.6322 44.1764 25.6063 44.1289 25.5728 44.0892C25.5424 44.0464 25.5029 44.0127 25.4542 43.9882C25.4085 43.9607 25.3568 43.9469 25.299 43.9469H24.6921ZM24.0212 46.5164V43.3551H25.3127C25.6504 43.3551 25.9075 43.4575 26.0839 43.6625C26.2604 43.8613 26.3486 44.1045 26.3486 44.392C26.3486 44.6795 26.2604 44.9227 26.0839 45.1215C25.9044 45.3234 25.6474 45.4244 25.3127 45.4244H24.6921V46.5164H24.0212Z" fill="white"/>
<path d="M28.2558 43.9469V44.8371H28.8445C28.9054 44.8371 28.9601 44.8248 29.0088 44.8004C29.0575 44.7728 29.0985 44.7392 29.132 44.6994C29.1685 44.6566 29.1959 44.6092 29.2141 44.5572C29.2324 44.5021 29.2415 44.4471 29.2415 44.392C29.2415 44.3369 29.2324 44.2834 29.2141 44.2314C29.1959 44.1764 29.17 44.1289 29.1366 44.0892C29.1061 44.0464 29.0666 44.0127 29.0179 43.9882C28.9723 43.9607 28.9206 43.9469 28.8628 43.9469H28.2558ZM27.585 46.5164V43.3551H28.8764C29.2141 43.3551 29.4712 43.4575 29.6477 43.6625C29.8241 43.8613 29.9124 44.1045 29.9124 44.392C29.9124 44.6795 29.8241 44.9227 29.6477 45.1215C29.4682 45.3234 29.2111 45.4244 28.8764 45.4244H28.2558V46.5164H27.585Z" fill="white"/>
<path d="M33.4898 44.9426C33.4898 44.6795 33.3985 44.4532 33.216 44.2635C33.0395 44.0769 32.8205 43.9837 32.5588 43.9837C32.2972 43.9837 32.0782 44.0769 31.9017 44.2635C31.7222 44.4532 31.6325 44.6795 31.6325 44.9426C31.6325 45.2057 31.7222 45.432 31.9017 45.6217C32.0782 45.8052 32.2972 45.8969 32.5588 45.8969C32.8205 45.8969 33.0395 45.8037 33.216 45.6171C33.3985 45.4305 33.4898 45.2057 33.4898 44.9426ZM30.9662 44.9426C30.9662 44.496 31.1198 44.1137 31.4271 43.7955C31.7374 43.4774 32.1147 43.3184 32.5588 43.3184C33.0061 43.3184 33.3833 43.4774 33.6906 43.7955C34.0009 44.1137 34.1561 44.496 34.1561 44.9426C34.1561 45.3922 34.0009 45.7746 33.6906 46.0897C33.3803 46.4047 33.003 46.5622 32.5588 46.5622C32.1147 46.5622 31.7374 46.4047 31.4271 46.0897C31.1198 45.7715 30.9662 45.3892 30.9662 44.9426Z" fill="white"/>
<path d="M35.4745 43.3551H36.1408V46.5164H35.4745V43.3551Z" fill="white"/>
<path d="M39.9983 43.3551V46.5164H39.4004L38.3052 44.6031V46.5164H37.6389V43.3551H38.2504L39.3274 45.2454V43.3551H39.9983Z" fill="white"/>
<path d="M41.2549 43.9607V43.3551H43.628V43.9607H42.7791V46.5164H42.1037V43.9607H41.2549Z" fill="white"/>
<path d="M46.5447 45.3922L47.4848 43.3551H48.0461L48.4294 46.5164H47.7586L47.5395 44.6214L46.8048 46.1539H46.2891L45.5498 44.6214L45.3262 46.5164H44.6554L45.0433 43.3551H45.5955L46.5447 45.3922Z" fill="white"/>
<path d="M49.7563 46.5164V43.3551H51.7459V43.9469H50.4225V44.6673H51.5816V45.25H50.4225V45.9245H51.787V46.5164H49.7563Z" fill="white"/>
<path d="M55.5055 43.3551V46.5164H54.9077L53.8125 44.6031V46.5164H53.1462V43.3551H53.7577L54.8347 45.2454V43.3551H55.5055Z" fill="white"/>
<path d="M56.7622 43.9607V43.3551H59.1352V43.9607H58.2864V46.5164H57.611V43.9607H56.7622Z" fill="white"/>
<path d="M64.5652 51L66 49.5652L60 48L61.5652 54L63 52.5652M64.1739 52.1739L66 54L64.1739 52.1739Z" fill="white"/>
<path d="M64.5652 51L66 49.5652L60 48L61.5652 54L63 52.5652M64.1739 52.1739L66 54" stroke="white" stroke-width="1.5" stroke-miterlimit="10.1516" stroke-linecap="round" stroke-linejoin="round"/>
<path d="M51.6446 30.621H27.4793C27.0697 30.621 26.6602 30.2091 26.6602 29.7971V28.3552C26.6602 27.9432 27.0697 27.5312 27.4793 27.5312H51.6446C52.0542 27.5312 52.4637 27.9432 52.4637 28.3552V29.7971C52.4637 30.2091 52.0542 30.621 51.6446 30.621Z" fill="white"/>
<path d="M58.6172 24.5019H20.5262C20.1166 24.5019 19.707 24.0899 19.707 23.678V22.2361C19.707 21.8241 20.1166 21.4121 20.5262 21.4121H58.6172C59.0268 21.4121 59.4364 21.8241 59.4364 22.2361V23.678C59.4364 24.0899 59.0268 24.5019 58.6172 24.5019Z" fill="white"/>
</svg>
