<svg width="72" height="65" viewBox="0 0 72 65" fill="none" xmlns="http://www.w3.org/2000/svg">
<path d="M65 62.9577C65 64.1831 63.9844 65 62.9688 65H2.03125C0.8125 65 0 63.9789 0 62.9577V9.04225C0 7.8169 1.01562 7 2.03125 7H62.9688C64.1875 7 65 8.02113 65 9.04225V62.9577Z" fill="#F8FAFE"/>
<path d="M72 55.9577C72 57.1831 70.9844 58 69.9688 58H9.03125C7.8125 58 7 56.9789 7 55.9577V2.04225C7 0.816901 8.01562 0 9.03125 0H69.9688C71.1875 0 72 1.02113 72 2.04225V55.9577Z" fill="#E4EAF4"/>
<path d="M7 14L72 14" stroke="#D7E0EE" stroke-miterlimit="10.1516"/>
<path d="M36.0008 34.7537C38.701 34.7537 40.8899 32.5484 40.8899 29.828C40.8899 27.1076 38.701 24.9023 36.0008 24.9023C33.3007 24.9023 31.1118 27.1076 31.1118 29.828C31.1118 32.5484 33.3007 34.7537 36.0008 34.7537Z" fill="white"/>
<path d="M25 48.9023V41.4099C25 39.573 26.4768 38.0851 28.3001 38.0851H43.6999C45.5232 38.0851 47 39.573 47 41.4099V48.9023" fill="white"/>
<path d="M51.2056 23V32.5933M46.4141 27.7958L55.9988 27.7974" stroke="#3760F7" stroke-width="2" stroke-miterlimit="10" stroke-linecap="round" stroke-linejoin="round"/>
</svg>
