<svg width="72" height="65" viewBox="0 0 72 65" fill="none" xmlns="http://www.w3.org/2000/svg">
<path d="M65 62.9577C65 64.1831 63.9844 65 62.9688 65H2.03125C0.8125 65 0 63.9789 0 62.9577V9.04225C0 7.8169 1.01562 7 2.03125 7H62.9688C64.1875 7 65 8.02113 65 9.04225V62.9577Z" fill="#F8FAFF"/>
<path d="M72 55.9577C72 57.1831 70.9844 58 69.9688 58H9.03125C7.8125 58 7 56.9789 7 55.9577V2.04225C7 0.816901 8.01562 0 9.03125 0H69.9688C71.1875 0 72 1.02113 72 2.04225V55.9577Z" fill="#E3EBF5"/>
<path d="M7 14H72" stroke="#D5E0F0" stroke-miterlimit="10.1516"/>
<path d="M12.8674 9.06429C13.778 9.06429 14.5161 8.32651 14.5161 7.41642C14.5161 6.50633 13.778 5.76855 12.8674 5.76855C11.9569 5.76855 11.2188 6.50633 11.2188 7.41642C11.2188 8.32651 11.9569 9.06429 12.8674 9.06429Z" fill="#F8FAFF"/>
<path d="M19.051 9.06429C19.9616 9.06429 20.6997 8.32651 20.6997 7.41642C20.6997 6.50633 19.9616 5.76855 19.051 5.76855C18.1405 5.76855 17.4023 6.50633 17.4023 7.41642C17.4023 8.32651 18.1405 9.06429 19.051 9.06429Z" fill="#F8FAFF"/>
<path d="M25.4338 9.06429C26.3444 9.06429 27.0825 8.32651 27.0825 7.41642C27.0825 6.50633 26.3444 5.76855 25.4338 5.76855C24.5233 5.76855 23.7852 6.50633 23.7852 7.41642C23.7852 8.32651 24.5233 9.06429 25.4338 9.06429Z" fill="#F8FAFF"/>
<path d="M19 26C19 24.8954 19.8954 24 21 24H62C63.1046 24 64 24.8954 64 26V47C64 48.1046 63.1046 49 62 49H21C19.8954 49 19 48.1046 19 47V26Z" fill="white"/>
<path d="M25 33C26.6569 33 28 31.6569 28 30C28 28.3431 26.6569 27 25 27C23.3431 27 22 28.3431 22 30C22 31.6569 23.3431 33 25 33Z" fill="#3760F7"/>
<path opacity="0.3" d="M29 33C30.6569 33 32 31.6569 32 30C32 28.3431 30.6569 27 29 27C27.3431 27 26 28.3431 26 30C26 31.6569 27.3431 33 29 33Z" fill="#3760F7"/>
<path d="M60.3571 46H22.6429C22.2143 46 22 45.7727 22 45.3182V41.6818C22 41.2273 22.2143 41 22.6429 41H60.3571C60.7857 41 61 41.2273 61 41.6818V45.3182C61 45.7727 60.7857 46 60.3571 46Z" fill="#3760F7"/>
<path d="M60.8516 33H52.1484C52.0495 33 52 32.7273 52 32.1818V27.8182C52 27.2727 52.0495 27 52.1484 27H60.8516C60.9505 27 61 27.2727 61 27.8182V32.1818C61 32.7273 60.9505 33 60.8516 33Z" fill="#E6EDFA"/>
</svg>
