<svg width="41" height="24.4" viewBox="0 0 41 24.4" style="enable-background:new 0 0 41 24.4;"  xmlns="http://www.w3.org/2000/svg">
<style type="text/css">
	.st0{fill:#3760F7;fill-opacity:5.000000e-02;}
	.st1{opacity:0.4;}
	.st2{fill:#DEEBFF;}
	.st3{opacity:0.13;fill:#3760F7;enable-background:new    ;}
	.st4{fill:#3760F7;}
	.st5{fill:#DEEBFF;stroke:#FFFFFF;stroke-width:2;stroke-miterlimit:10;}
</style>
<path class="st0" d="M31,11.7c0-0.1-0.1-0.2-0.1-0.3c0-0.2-0.1-0.4-0.2-0.6c-0.1-0.1-0.1-0.3-0.2-0.4c-0.1-0.1-0.2-0.3-0.3-0.5
	c-0.1-0.1-0.2-0.2-0.2-0.3c0-0.1-0.2-0.3-0.3-0.4c-0.1-0.1-0.2-0.2-0.3-0.3L29,8.6l-0.4-0.3c-0.1-0.1-0.3-0.2-0.5-0.2l-0.4-0.2
	c-0.2-0.1-0.3-0.1-0.5-0.2c-0.1,0-0.3-0.1-0.4-0.1l-0.2-0.1c-0.4-1.2-1.2-2.3-2.3-3.1S22,3.3,20.7,3.3S18.1,3.7,17,4.5
	s-1.9,1.8-2.3,3.1l-0.2,0.1c-0.1,0-0.3,0.1-0.4,0.1c-0.2,0-0.4,0.1-0.5,0.2L13.2,8c-0.2,0.1-0.3,0.1-0.5,0.2l-0.4,0.3L12,8.9
	c-0.1,0.1-0.2,0.2-0.3,0.3c-0.1,0.1-0.2,0.3-0.3,0.4S11.1,9.9,11,10c-0.1,0.1-0.2,0.3-0.3,0.5c-0.1,0.2-0.1,0.3-0.2,0.4
	c-0.1,0.2-0.1,0.4-0.2,0.6c0,0.1-0.1,0.2-0.1,0.3c-0.1,0.3-0.1,0.7-0.1,1c0,0.3,0,0.6,0.1,1c0,0.1,0.1,0.2,0.1,0.3
	c0.1,0.2,0.1,0.4,0.2,0.6l0.1,0.3c0.1,0.2,0.2,0.4,0.3,0.6l0.1,0.2c0,0,0,0.1,0.1,0.1l0.1,0.1c0.5,0.6,1.1,1.2,1.8,1.5
	c0.7,0.4,1.5,0.6,2.3,0.6h3.1v-1.4c-0.3,0.2-0.7,0.3-1,0.3c-0.6,0-1.1-0.2-1.5-0.6c-0.2-0.2-0.3-0.4-0.4-0.7
	c-0.1-0.3-0.2-0.5-0.1-0.8c0-0.3,0.1-0.5,0.2-0.8c0.1-0.3,0.3-0.5,0.5-0.7l3.1-3c0.4-0.4,0.9-0.6,1.5-0.6c0.6,0,1.1,0.2,1.5,0.6
	l3.1,3.1c0.4,0.4,0.6,0.9,0.6,1.5c0,0.6-0.2,1.1-0.6,1.5c-0.4,0.4-0.9,0.6-1.5,0.6c-0.4,0-0.7-0.1-1-0.3V18h3.1
	c0.8,0,1.6-0.2,2.3-0.6c0.7-0.4,1.4-0.9,1.8-1.5l0.1-0.1c0,0,0-0.1,0.1-0.1l0.1-0.2c0.1-0.2,0.2-0.4,0.3-0.6l0.1-0.3
	c0.1-0.2,0.1-0.4,0.2-0.6c0-0.1,0.1-0.2,0.1-0.3c0.1-0.3,0.1-0.6,0.1-1C31.1,12.4,31.1,12.1,31,11.7z"/>
<path class="st0" d="M21.4,11c-0.2-0.2-0.5-0.3-0.7-0.3c-0.3,0-0.5,0.1-0.7,0.3l-3.1,3c-0.1,0.1-0.2,0.2-0.3,0.3
	c-0.1,0.1-0.1,0.3-0.1,0.4c0,0.1,0,0.3,0.1,0.4c0,0.1,0.1,0.3,0.2,0.4c0.1,0.1,0.2,0.2,0.4,0.2c0.1,0.1,0.3,0.1,0.4,0.1
	c0.1,0,0.3,0,0.4-0.1c0.1-0.1,0.2-0.1,0.3-0.3l1.4-1.3v5.9c0,0.3,0.1,0.5,0.3,0.7c0.2,0.2,0.5,0.3,0.7,0.3c0.3,0,0.5-0.1,0.7-0.3
	c0.2-0.2,0.3-0.5,0.3-0.7v-5.8l1.3,1.4c0.1,0.1,0.2,0.2,0.3,0.2c0.1,0.1,0.3,0.1,0.4,0.1c0.1,0,0.3,0,0.4-0.1
	c0.1-0.1,0.2-0.1,0.3-0.2c0.1-0.1,0.2-0.2,0.2-0.3c0.1-0.1,0.1-0.3,0.1-0.4c0-0.1,0-0.3-0.1-0.4c-0.1-0.1-0.1-0.2-0.2-0.3L21.4,11z"
	/>
<g class="st1">
	<path class="st2" d="M35.3,23.6l-12.8-3.5c-0.9-0.3-1.5-1.2-1.2-2.1l3.5-12.8c0.3-0.9,1.2-1.5,2.1-1.2l12.8,3.5
		c0.9,0.3,1.5,1.2,1.2,2.1l-3.5,12.8C37.2,23.3,36.2,23.9,35.3,23.6z"/>
	<path class="st3" d="M30.3,17.9c1,0.5,2.3,0.3,3-0.6c0.1-0.1,0.2-0.3,0.3-0.4c0.8-1,1.9-2.2,2.7-2.1c1.1,0.2,1.4,3.1,1.4,3.8
		c0.1,1.6-0.1,3-0.4,3.9c-0.1,0.5-0.6,0.9-1.1,0.7L36,23.1l-9.2-2.6l-0.3-0.1c-0.4-0.1-0.8-0.7-0.6-1.2C26,19.3,27.3,16.3,30.3,17.9
		z"/>
	<path class="st4" d="M36.4,12.9c-1.1-0.3-1.7-1.4-1.4-2.5c0.3-1.1,1.4-1.7,2.5-1.4c1.1,0.3,1.7,1.4,1.4,2.5
		C38.6,12.5,37.5,13.2,36.4,12.9z"/>
	<path class="st4" d="M33.1,17.9c-1.6-0.1-3-1.4-3.3-2.9c0,0-0.2-1.4-0.4-1.9c-0.8-2.2-4.2-2.1-5.2,0l-3,5.2
		c-0.3,0.7,0.2,1.5,0.8,1.7l0.4,0.1l13.1,3.6l0.4,0.1c0.6,0.2,1.5-0.3,1.6-1C37.3,22.7,37.9,18.2,33.1,17.9z"/>
</g>
<g class="st1">
	<path class="st2" d="M5.7,23.6l12.8-3.5c0.9-0.3,1.5-1.2,1.2-2.1L16.2,5.1C15.9,4.2,15,3.6,14,3.9L1.3,7.4C0.4,7.7-0.2,8.6,0.1,9.6
		l3.5,12.8C3.8,23.3,4.8,23.9,5.7,23.6z"/>
	<path class="st3" d="M10.7,17.9c-1,0.5-2.3,0.3-3-0.6c-0.1-0.1-0.2-0.3-0.3-0.4c-0.8-1-1.9-2.2-2.7-2.1c-1.1,0.2-1.4,3.1-1.4,3.8
		c-0.1,1.6,0.1,3,0.4,3.9c0.1,0.5,0.6,0.9,1.1,0.7L5,23.1l9.2-2.6l0.3-0.1c0.4-0.1,0.8-0.7,0.6-1.2C15,19.3,13.7,16.3,10.7,17.9z"/>
	<path class="st4" d="M4.6,12.9c1.1-0.3,1.7-1.4,1.4-2.5C5.7,9.3,4.6,8.7,3.5,9c-1.1,0.3-1.7,1.4-1.4,2.5
		C2.4,12.5,3.5,13.2,4.6,12.9z"/>
	<path class="st4" d="M7.9,17.9c1.6-0.1,3-1.4,3.3-2.9c0,0,0.2-1.4,0.4-1.9c0.8-2.2,4.2-2.1,5.2,0l3,5.2c0.3,0.7-0.2,1.5-0.8,1.7
		l-0.4,0.1L5.6,23.7l-0.4,0.1c-0.6,0.2-1.5-0.3-1.6-1C3.7,22.7,3.1,18.2,7.9,17.9z"/>
</g>
<g>
	<path class="st5" d="M29.9,23.4H11.1c-1,0-1.7-0.8-1.7-1.7V2.7c0-1,0.8-1.7,1.7-1.7h18.8c1,0,1.7,0.8,1.7,1.7v18.9
		C31.6,22.6,30.9,23.4,29.9,23.4z"/>
	<path class="st3" d="M20.9,17.8c1.5,0.3,3-0.5,3.7-1.8c0.1-0.2,0.2-0.4,0.3-0.7c0.7-1.5,1.6-3.5,2.7-3.6c1.5-0.1,2.8,3.6,3.1,4.3
		c0.8,2.1,0.9,3.9,0.9,5.1c0.1,0.7-0.5,1.3-1.1,1.3h-0.4H17.3H17c-0.6,0-1.3-0.6-1.2-1.3C15.8,21.1,16.4,16.8,20.9,17.8z"/>
	<path class="st4" d="M27,9.2c-1.5,0-2.7-1.2-2.7-2.7s1.2-2.7,2.7-2.7c1.5,0,2.7,1.2,2.7,2.7S28.5,9.2,27,9.2z"/>
	<path class="st4" d="M24.5,16.8c-2.1,0.5-4.3-0.7-5.2-2.6c0,0-0.7-1.8-1.1-2.3c-1.8-2.5-6.1-1.2-6.7,1.8l-2.1,7.7
		c-0.2,0.9,0.8,1.9,1.6,1.9h0.6h18H30c0.8,0,1.8-0.9,1.6-1.9C31.6,21.5,30.8,15.5,24.5,16.8z"/>
</g>
</svg>
